<svg xmlns="http://www.w3.org/2000/svg" width="900" height="560" viewBox="0 0 900 560">
<defs><linearGradient id="bg" x1="0" x2="1" y1="0" y2="1"><stop offset="0%" stop-color="#172842"/><stop offset="55%" stop-color="#101c2f"/><stop offset="100%" stop-color="#071018"/></linearGradient><linearGradient id="gold" x1="0" x2="1"><stop offset="0%" stop-color="#d4a84f"/><stop offset="100%" stop-color="#f6d67c"/></linearGradient></defs>
<rect width="900" height="560" rx="42" fill="url(#bg)"/><circle cx="760" cy="96" r="150" fill="#263955" opacity=".28"/><circle cx="110" cy="505" r="170" fill="#263955" opacity=".20"/>
<rect x="55" y="55" width="790" height="450" rx="34" fill="#0d1726" opacity=".72" stroke="#344966" stroke-width="4"/>
<rect x="95" y="100" width="300" height="360" rx="28" fill="#14243b" stroke="#3a526f" stroke-width="3"/>
<circle cx="245" cy="230" r="86" fill="#0d1726" stroke="#496384" stroke-width="4"/><text x="245" y="255" text-anchor="middle" fill="url(#gold)" font-size="86" font-weight="900" font-family="Segoe UI, Arial">AP</text>
<text x="245" y="365" text-anchor="middle" fill="#ffffff" font-size="32" font-weight="850" font-family="Segoe UI, Arial">AulaPronta Pro</text><text x="245" y="402" text-anchor="middle" fill="#a7b0c2" font-size="18" font-family="Segoe UI, Arial">atividades • provas • planos</text>
<g transform="translate(455 108)"><rect x="0" y="0" width="320" height="70" rx="18" fill="#162840" stroke="#344966"/><rect x="22" y="22" width="190" height="12" rx="6" fill="#f6d67c"/><rect x="22" y="44" width="250" height="9" rx="5" fill="#5f789b"/><rect x="0" y="95" width="320" height="70" rx="18" fill="#162840" stroke="#344966"/><rect x="22" y="117" width="150" height="12" rx="6" fill="#f6d67c"/><rect x="22" y="139" width="260" height="9" rx="5" fill="#5f789b"/><rect x="0" y="190" width="320" height="70" rx="18" fill="#162840" stroke="#344966"/><rect x="22" y="212" width="205" height="12" rx="6" fill="#f6d67c"/><rect x="22" y="234" width="235" height="9" rx="5" fill="#5f789b"/><rect x="0" y="285" width="145" height="50" rx="16" fill="url(#gold)"/><text x="72" y="317" text-anchor="middle" fill="#101827" font-size="17" font-weight="900" font-family="Segoe UI, Arial">Gerar agora</text></g>
</svg>