<svg xmlns="http://www.w3.org/2000/svg" viewBox="0 0 900 620">
<defs>
  <linearGradient id="bg" x1="0" x2="1" y1="0" y2="1"><stop offset="0" stop-color="#182b49"/><stop offset="1" stop-color="#0a1424"/></linearGradient>
  <linearGradient id="gold" x1="0" x2="1" y1="0" y2="1"><stop offset="0" stop-color="#ffe08a"/><stop offset="1" stop-color="#d59c30"/></linearGradient>
</defs>
<rect width="900" height="620" rx="44" fill="url(#bg)"/>
<circle cx="745" cy="110" r="170" fill="#203b64" opacity=".55"/>
<rect x="125" y="95" width="650" height="410" rx="42" fill="#0f1c31" stroke="#426188" stroke-width="6"/>
<rect x="175" y="145" width="235" height="310" rx="36" fill="#132844" stroke="#49698f" stroke-width="4"/>
<circle cx="292" cy="260" r="76" fill="#0e1b30" stroke="#5879a3" stroke-width="5"/>
<text x="238" y="286" font-family="Arial, sans-serif" font-size="76" font-weight="900" fill="url(#gold)">AP</text>
<text x="205" y="372" font-family="Arial, sans-serif" font-size="31" font-weight="900" fill="#f7fbff">AulaPronta</text>
<text x="235" y="410" font-family="Arial, sans-serif" font-size="18" fill="#b9c8df">Professor Pro</text>
<rect x="470" y="160" width="250" height="58" rx="16" fill="#172e4d" stroke="#294b72"/>
<rect x="500" y="184" width="118" height="12" rx="6" fill="url(#gold)"/>
<rect x="470" y="248" width="250" height="58" rx="16" fill="#172e4d" stroke="#294b72"/>
<rect x="500" y="272" width="160" height="12" rx="6" fill="#8fb9ff"/>
<rect x="470" y="336" width="250" height="58" rx="16" fill="#172e4d" stroke="#294b72"/>
<rect x="500" y="360" width="135" height="12" rx="6" fill="url(#gold)"/>
<rect x="470" y="420" width="120" height="42" rx="14" fill="url(#gold)"/>
</svg>